<svg width="43" height="43" viewBox="0 0 43 43" fill="none" xmlns="http://www.w3.org/2000/svg">
<path d="M11.1924 10.4619C11.1775 11.7113 12.2978 11.7382 14.5813 10.5203C18.7106 8.34052 22.985 8.24562 26.9393 10.2842C28.7516 11.1823 29.3773 11.7396 31.0739 13.8755L33.1111 16.3826L33.9533 15.7137C34.9078 14.9555 34.7083 14.2431 32.9563 11.922C28.7602 6.4086 21.4106 4.59173 14.9883 7.40107C12.4305 8.56184 11.2233 9.52071 11.1924 10.4619Z" fill="#F35AAB"/>
<path d="M6.1653 22.7514C6.60383 27.8575 10.2303 32.7691 15.2315 35.0304C17.4635 36.0535 21.8373 36.4297 24.3319 35.8234C29.5341 34.5331 33.7805 30.6561 35.3694 25.6814C36.0537 23.4877 36.0832 23.006 35.5028 22.2753C34.5206 21.0387 33.5941 21.7745 32.9595 24.2037C32.2393 27.1592 30.8162 29.1146 27.9533 31.1594C25.1465 33.1596 22.7527 33.7775 19.4603 33.3217C16.1621 32.9162 13.4778 31.3814 11.3795 28.7396C9.81683 26.7722 9.59429 26.2615 9.05318 23.6203C8.39608 20.4295 7.83801 19.7269 6.71501 20.6189C6.20966 21.0203 6.06217 21.6416 6.1653 22.7514Z" fill="#F35AAB"/>
<path d="M15.4583 15.3702C15.4129 15.5437 15.6189 15.976 15.8868 16.3132C16.2663 16.791 16.226 17.1438 15.7257 17.7245C14.163 19.5617 15.8893 23.0032 18.5323 23.3332C19.6187 23.4328 20.1234 23.2612 21.2183 22.3915C22.9028 21.0535 24.5385 21.0377 24.7756 22.3161C24.963 23.3591 22.6212 25.3107 21.0748 25.439C19.7076 25.5624 19.2628 26.3282 19.9771 27.2275C20.6022 28.0145 21.8513 28.0307 23.3883 27.3141C24.0614 27.0086 24.4365 27.0773 24.816 27.5551C25.3741 28.2577 26.2539 28.1548 26.7268 27.3667C26.8621 27.0759 26.7907 26.5825 26.5005 26.2172C26.1433 25.7675 26.139 25.3584 26.5831 24.8223C28.2027 22.7109 26.8457 19.3885 24.1753 18.8511C23.1508 18.6564 22.5957 18.8223 21.1308 19.8026C18.7228 21.4402 17.5355 21.329 17.7484 19.464C17.8411 18.4278 19.2391 17.3632 20.6681 17.1449C22.1196 16.9546 22.6205 16.1442 21.9062 15.2448C21.3258 14.5141 19.7577 14.3845 18.9435 15.0312C18.6628 15.2542 18.1645 15.1457 17.6562 14.6786C17.0024 14.1437 16.6496 14.1031 16.1442 14.5045C15.7793 14.7944 15.4532 15.1909 15.4583 15.3702Z" fill="#F35AAB"/>
</svg>
