<svg width="45" height="43" viewBox="0 0 45 43" fill="none" xmlns="http://www.w3.org/2000/svg">
<path d="M5.94275 15.9671C5.07881 17.0299 4.96654 17.5155 5.42497 18.3138C6.12669 19.603 6.95861 19.4275 8.58959 17.5223C10.2978 15.5122 12.4577 14.8648 15.1703 15.5091C16.3129 15.7773 17.5623 15.7674 17.9332 15.5076C18.3041 15.2479 18.7169 14.0432 18.8655 12.8199C19.6279 6.5882 27.125 4.95073 30.8299 10.242C31.6187 11.3685 32.0366 12.7547 32.3972 15.3511C32.9594 19.3836 33.6764 20.4077 35.0069 19.2217C35.6335 18.6812 35.8047 17.8491 35.6438 15.825C35.3771 12.5015 34.7919 10.8763 32.9035 8.1795C31.0869 5.58509 29.1738 4.43183 26.0229 4.09446C21.6422 3.65155 17.7459 6.12536 16.1593 10.3905L15.519 12.0598L13.7314 12.0905C10.4878 12.1233 7.95577 13.3875 5.94275 15.9671Z" fill="#F35AAB"/>
<path d="M4.6998 25.0285C5.60426 27.3967 8.55799 30.4668 11.3777 32.0536C17.4824 35.461 28.3981 35.9067 31.316 32.8969C32.5073 31.6558 35.077 25.2778 34.9135 23.9678C34.75 22.6578 33.7858 22.2138 32.7067 22.9693C32.1672 23.3471 31.757 23.8378 31.7416 24.103C31.853 25.1951 29.5331 30.2789 28.7238 30.8456C26.3633 32.4984 17.4671 31.707 13.0113 29.4344C10.8817 28.3309 10.1536 27.7216 8.58023 25.6182C7.56649 24.2422 6.64836 23.0027 6.52884 22.832C6.39951 22.7191 5.88943 22.9236 5.31618 23.325C4.5406 23.8681 4.39034 24.2277 4.6998 25.0285Z" fill="#F35AAB"/>
</svg>
